<svg class="eye-open" width="24" height="24" viewBox="0 0 24 24" fill="none" xmlns="http://www.w3.org/2000/svg">
    <path d="M14.5 11C14.5 12.3807 13.3807 13.5 12 13.5C10.6193 13.5 9.5 12.3807 9.5 11C9.5 9.61929 10.6193 8.5 12 8.5C13.3807 8.5 14.5 9.61929 14.5 11Z" fill="currentColor"/>
    <path d="M12 4.5C16.5514 4.5 20.438 7.19598 22 11C20.438 14.804 16.5514 17.5 12 17.5C7.44856 17.5 3.56205 14.804 2 11C3.56205 7.19598 7.44856 4.5 12 4.5ZM12 6.5C9.51472 6.5 7.5 8.51472 7.5 11C7.5 13.4853 9.51472 15.5 12 15.5C14.4853 15.5 16.5 13.4853 16.5 11C16.5 8.51472 14.4853 6.5 12 6.5Z" fill="currentColor"/>
</svg>