<svg width="9" height="9" viewBox="0 0 9 9" fill="none" xmlns="http://www.w3.org/2000/svg">
    <path d="M9.85156 -2C10.2589 -2 10.6081 -1.8552 10.8984 -1.56543C11.1883 -1.27507 11.333 -0.925947 11.333 -0.518555V9.85156C11.333 10.259 11.1883 10.6081 10.8984 10.8984C10.6081 11.1883 10.259 11.333 9.85156 11.333H-0.518555C-0.925947 11.333 -1.27507 11.1883 -1.56543 10.8984C-1.8552 10.6081 -2 10.2589 -2 9.85156V-0.518555C-1.99999 -0.925947 -1.8553 -1.27507 -1.56543 -1.56543C-1.27507 -1.8553 -0.925947 -1.99999 -0.518555 -2H9.85156ZM-1 -1V10H10V-1H-1ZM7.81445 1.83301C8.02426 1.83301 8.19722 1.90139 8.33301 2.03711C8.48116 2.18526 8.55566 2.35813 8.55566 2.55566C8.55564 2.75315 8.48734 2.91989 8.35156 3.05566L4.14844 7.25879C4.07436 7.33286 3.99365 7.38588 3.90723 7.41699C3.82092 7.44755 3.7285 7.46286 3.62988 7.46289C3.53112 7.46289 3.43798 7.44761 3.35156 7.41699C3.26525 7.38587 3.18532 7.33279 3.11133 7.25879L1 5.14844C0.864252 5.01269 0.795953 4.83965 0.795898 4.62988C0.795898 4.42006 0.86427 4.24711 1 4.11133C1.14815 3.96318 1.32102 3.88867 1.51855 3.88867C1.71607 3.88868 1.88276 3.95698 2.01855 4.09277L3.62988 5.7041L7.2959 2.03711C7.43162 1.90138 7.60474 1.83309 7.81445 1.83301Z" fill="currentColor"/>
</svg>