<svg width="38" height="54" viewBox="0 0 38 54" fill="none" xmlns="http://www.w3.org/2000/svg">
<path d="M19 0C29.4934 0 38 9.26622 38 20.6967C38 26.0877 36.1077 30.9972 33.0072 34.6803L20.3663 54L6.3708 36.1597C2.46201 32.3689 0 26.846 0 20.6967C0 9.26622 8.50659 0 19 0Z" fill="#FDC858"/>
<path d="M12.75 29.6666C12.0083 29.6666 11.2833 29.4614 10.6666 29.0768C10.0499 28.6922 9.56928 28.1456 9.28545 27.506C9.00162 26.8665 8.92736 26.1627 9.07206 25.4838C9.21675 24.8049 9.5739 24.1812 10.0984 23.6918C10.6228 23.2023 11.291 22.8689 12.0184 22.7339C12.7458 22.5988 13.4998 22.6681 14.1851 22.933C14.8703 23.198 15.456 23.6466 15.868 24.2221C16.2801 24.7977 16.5 25.4744 16.5 26.1666C16.5 27.0949 16.1049 27.9851 15.4017 28.6415C14.6984 29.2979 13.7446 29.6666 12.75 29.6666ZM12.75 25C12.5028 25 12.2611 25.0684 12.0555 25.1966C11.85 25.3248 11.6898 25.507 11.5952 25.7202C11.5005 25.9333 11.4758 26.1679 11.524 26.3942C11.5723 26.6205 11.6913 26.8284 11.8661 26.9916C12.0409 27.1547 12.2637 27.2659 12.5061 27.3109C12.7486 27.3559 12.9999 27.3328 13.2284 27.2445C13.4568 27.1562 13.652 27.0067 13.7893 26.8148C13.9267 26.6229 14 26.3974 14 26.1666C14 25.8572 13.8683 25.5605 13.6339 25.3417C13.3995 25.1229 13.0815 25 12.75 25Z" fill="#355B3E"/>
<path d="M26.5 29.6666C25.7583 29.6666 25.0333 29.4614 24.4166 29.0768C23.7999 28.6922 23.3193 28.1456 23.0355 27.506C22.7516 26.8665 22.6774 26.1627 22.8221 25.4838C22.9668 24.8049 23.3239 24.1812 23.8484 23.6918C24.3728 23.2023 25.041 22.8689 25.7684 22.7339C26.4958 22.5988 27.2498 22.6681 27.9351 22.933C28.6203 23.198 29.206 23.6466 29.618 24.2221C30.0301 24.7977 30.25 25.4744 30.25 26.1666C30.25 27.0949 29.8549 27.9851 29.1517 28.6415C28.4484 29.2979 27.4946 29.6666 26.5 29.6666ZM26.5 25C26.2528 25 26.0111 25.0684 25.8055 25.1966C25.6 25.3248 25.4398 25.507 25.3452 25.7202C25.2505 25.9333 25.2258 26.1679 25.274 26.3942C25.3223 26.6205 25.4413 26.8284 25.6161 26.9916C25.7909 27.1547 26.0137 27.2659 26.2561 27.3109C26.4986 27.3559 26.7499 27.3328 26.9784 27.2445C27.2068 27.1562 27.402 27.0067 27.5393 26.8148C27.6767 26.6229 27.75 26.3974 27.75 26.1666C27.75 25.8572 27.6183 25.5605 27.3839 25.3417C27.1495 25.1229 26.8315 25 26.5 25Z" fill="#355B3E"/>
<path d="M24 27.3333H15.25C14.9185 27.3333 14.6005 27.2104 14.3661 26.9916C14.1317 26.7728 14 26.4761 14 26.1667C14 25.8572 14.1317 25.5605 14.3661 25.3417C14.6005 25.1229 14.9185 25 15.25 25H24C24.3315 25 24.6495 25.1229 24.8839 25.3417C25.1183 25.5605 25.25 25.8572 25.25 26.1667C25.25 26.4761 25.1183 26.7728 24.8839 26.9916C24.6495 27.2104 24.3315 27.3333 24 27.3333Z" fill="#355B3E"/>
<path d="M10.25 27.3333H9C8.33696 27.3333 7.70107 27.0875 7.23223 26.6499C6.76339 26.2123 6.5 25.6188 6.5 25V15.6666C6.5 14.7384 6.89509 13.8481 7.59835 13.1918C8.30161 12.5354 9.25544 12.1666 10.25 12.1666H22.75C25.0706 12.1666 27.2962 13.027 28.9372 14.5586C30.5781 16.0901 31.5 18.1674 31.5 20.3333V21.5C31.5 21.8094 31.3683 22.1061 31.1339 22.3249C30.8995 22.5437 30.5815 22.6666 30.25 22.6666C29.9185 22.6666 29.6005 22.5437 29.3661 22.3249C29.1317 22.1061 29 21.8094 29 21.5V20.3333C29 18.7862 28.3415 17.3025 27.1694 16.2085C25.9973 15.1145 24.4076 14.5 22.75 14.5H10.25C9.91848 14.5 9.60054 14.6229 9.36612 14.8417C9.1317 15.0605 9 15.3572 9 15.6666V25H10.25C10.5815 25 10.8995 25.1229 11.1339 25.3417C11.3683 25.5605 11.5 25.8572 11.5 26.1666C11.5 26.476 11.3683 26.7728 11.1339 26.9916C10.8995 27.2104 10.5815 27.3333 10.25 27.3333Z" fill="#355B3E"/>
<path d="M29 20.3333H21.5C21.1685 20.3333 20.8505 20.2104 20.6161 19.9916C20.3817 19.7728 20.25 19.4761 20.25 19.1667C20.25 18.8572 20.3817 18.5605 20.6161 18.3417C20.8505 18.1229 21.1685 18 21.5 18H29C29.3315 18 29.6495 18.1229 29.8839 18.3417C30.1183 18.5605 30.25 18.8572 30.25 19.1667C30.25 19.4761 30.1183 19.7728 29.8839 19.9916C29.6495 20.2104 29.3315 20.3333 29 20.3333Z" fill="#355B3E"/>
<path d="M30.1375 19.1667C29.9139 17.9383 29.343 16.7878 28.4838 15.8342C27.6246 14.8805 26.5083 14.1581 25.25 13.7417V19.1667H30.1375Z" fill="#355B3E"/>
</svg>
